# P-0001 data_version=23 hash=b4ded07a9e2bce6d8820dc47fd8fa37648a3a3a608c9eec2e9481029b9c52123
# DEV SIMULATED APPROVAL
o O-VAN
v 0.000 0.000 0.000
v 750.000 0.000 0.000
v 0.000 0.000 -550.000
v 750.000 0.000 -550.000
v 0.000 850.000 0.000
v 750.000 850.000 0.000
v 0.000 850.000 -550.000
v 750.000 850.000 -550.000
f 1 2 4 3
f 5 7 8 6
f 1 5 6 2
f 3 4 8 7
f 1 3 7 5
f 2 6 8 4
o O-WCB
v 0.000 1500.000 0.000
v 750.000 1500.000 0.000
v 0.000 1500.000 -200.000
v 750.000 1500.000 -200.000
v 0.000 2200.000 0.000
v 750.000 2200.000 0.000
v 0.000 2200.000 -200.000
v 750.000 2200.000 -200.000
f 9 10 12 11
f 13 15 16 14
f 9 13 14 10
f 11 12 16 15
f 9 11 15 13
f 10 14 16 12
o O-WSH
v 1000.000 0.000 0.000
v 1640.000 0.000 0.000
v 1000.000 0.000 -600.000
v 1640.000 0.000 -600.000
v 1000.000 1000.000 0.000
v 1640.000 1000.000 0.000
v 1000.000 1000.000 -600.000
v 1640.000 1000.000 -600.000
f 17 18 20 19
f 21 23 24 22
f 17 21 22 18
f 19 20 24 23
f 17 19 23 21
f 18 22 24 20
